<svg xmlns="http://www.w3.org/2000/svg" viewBox="0 0 792 612"><path d="M394.5 350.7c-13.6 0-21.6-1.1-34.7-4l-1.1 9.7c8 9.1 11.9 15.3 17.1 26.1 6.8 14.2 9.1 23.3 10.2 39.2 0 0 2.3 26.1 2.3 31.8 0 6.3 15.9 6.3 15.9 0 0-11.9 2.8-31.8 2.8-31.8 1.1-15.9 3.4-25 10.2-39.8 5.1-10.8 8.5-16.5 16.5-26.1l-1.7-9.1c-14.7 3.4-22.7 4-37.5 4zm2.3-198.4c-53.4 0-96.6 43.2-96.6 96.6s43.2 96.6 96.6 96.6 96.6-43.2 96.6-96.6c0-53.4-43.2-96.6-96.6-96.6zm-79.5 56.3h1.7c-2.3 1.7-4 4.5-3.4 7.4.6 3.4 3.4 5.7 6.8 5.7-.6.6-1.1.6-2.3.6-4 .6-7.4-1.7-8.5-5.1-.6-4.1 1.7-8.1 5.7-8.6zm-8.6 59.1c-3.4-4-2.8-9.7 1.1-12.5.6-.6 1.1-.6 1.7-1.1-2.3 2.8-1.1 6.8.6 10.8 2.8 5.1 8 5.7 7.4 6.3-3.4 1.6-7.9.5-10.8-3.5zm5.1-26.2c0-4.5 2.3-8.5 6.3-9.1-1.1 1.7-1.1 3.4-1.1 5.1.6 4.5 4 8 8 8h.6c-1.1 2.3-3.4 3.4-5.7 4-4.1 0-8.1-3.4-8.1-8zm12 56.3c-3.4-4-2.8-9.7 1.1-12.5.6-.6 1.1-.6 1.7-1.1-2.3 2.8-1.1 6.8.6 10.8 2.8 5.1 8 5.7 7.4 6.3-2.9 1.6-8 .5-10.8-3.5zm9.1-19.3c-4.5.6-8.5-3.4-8.5-8.5-.6-5.1 2.8-9.1 6.8-9.7-1.1 1.7-1.7 3.4-1.1 5.7.6 5.1 4 9.1 8.5 8.5h.6c-1.8 2.3-4.1 4-6.3 4zm11.9 21c-.6-4.5 1.7-9.1 5.7-10.2-.6 1.7-1.1 3.4-.6 5.7.6 4.5 5.1 8 9.1 7.4h.6c-1.1 2.3-2.8 4-5.7 4.5-4.5.6-8.5-2.3-9.1-7.4zm7.4 27.3c-4-3.4-5.1-9.1-2.3-12.5l1.7-1.7c-1.1 3.4.6 7.4 3.4 10.2 4 4.5 8.7 4 8.1 4-2.8 2.3-7.5 2.3-10.9 0zm22.2 1.1c-4.3-3.1-5.1-9.1-2.3-12.5l1.7-1.7c-1.1 3.4.6 7.4 3.4 10.2 4 4.5 9.1 4 8.5 4-2.8 2.9-7.4 2.9-11.3 0zm31.2 12.5c-4.5 0-8.5-2.8-8.5-7.4v-1.7c1.1 2.8 4.5 4.5 8 5.1 5.1.6 8.5-2.8 8.5-2.3-.6 2.9-4 5.8-8 6.3zm19.3-7.4s-4.5-3.4-8-4.5c-7.4-3.4-15.3 0-21.6-4-4-2.3-4.5-5.7-6.8-10.2-1.7-2.8-2.8-2.8-7.4-4-19.3-5.1-14.8-13.1-14.2-17.6 0-1.7-1.1-4-2.8-4-4.5-.6-14.8 1.1-19.3-11.4-2.8-8 1.7-14.2 2.3-15.3-.6-1.1-1.1-7.4-4.5-6.8-15.3 2.3-15.3-17.6-7.4-21 1.1-.6 1.7-5.7-2.8-5.7-3.4 0-9.1-1.7-10.2-10.8-.6-6.8 4-12.5 6.3-13.1 5.7-1.7 8.5-1.7 6.3-7.4 0 0-1.1-3.4-1.1-5.7 0-6.8 10.2-16.5 10.2-16.5 14.2-9.7 31.3-14.8 49.4-14.8 49.4 0 89.8 40.4 89.8 89.8 1 37-23.5 70.5-58.2 83z"/><path d="M385.5 268.2c-1.7 0-3.4 1.1-4.5 2.3h.6c3.4 0 5.7 2.3 6.3 5.1 0 1.1 0 2.8-1.1 3.4 2.8-.6 5.1-2.8 5.1-6.3-.8-2.2-3-4.5-6.4-4.5zm-39.3-88c-.6 0 2.3 2.8 1.7 7.4-.6 3.4-2.3 6.3-4.5 7.4h1.7c4 0 6.8-3.4 6.8-7.4-.5-3.5-2.8-6.9-5.7-7.4zm-4.5 34.6c0-3.4-2.8-6.3-6.3-6.3-1.1 0-2.8.6-3.4 1.1 2.8.6 5.1 3.4 5.1 6.3 0 2.3-1.1 4-2.8 5.1h1.1c3.4.1 6.3-2.8 6.3-6.2zm1.7 19.9c-2.3 0-4 1.1-5.1 2.8h.6c4 0 6.8 2.8 7.4 6.3 0 1.7-.6 2.8-1.1 4.5 3.4-.6 6.3-3.4 5.7-7.4-.7-3.3-3.5-6.2-7.5-6.2zm16.5 30.7c-2.3 0-4.5 1.7-5.7 3.4h.6c4.5-.6 8 2.8 8.5 7.4 0 1.7-.6 3.4-1.1 5.1 4-.6 6.8-4 6.8-8.5-1.2-4-5.1-7.4-9.1-7.4zm20.4 24.4c-2.3.6-4.5 1.7-5.7 4h.6c4.5-.6 8 2.3 9.1 6.8 0 1.7 0 3.4-1.1 5.1 4-1.1 6.8-4.5 6.3-8.5-.6-4.5-4.6-7.9-9.2-7.4zm22.2 20.5c-2.3 1.1-3.4 2.8-4 4.5h.6c3.4-1.7 7.4 0 9.1 3.4.6 1.7.6 2.8.6 4.5 3.4-1.7 4.5-5.7 3.4-8.5-2.3-3.9-6.3-5.6-9.7-3.9zm24.4 6.3c-1.7 1.1-2.3 2.8-2.3 4.5h.6c2.3-2.3 6.3-1.7 8 .6.6 1.1 1.1 2.3 1.1 3.4 2.3-2.3 2.3-5.7.6-8-1.7-1.7-5.7-2.2-8-.5zm0-12c.6 1.7.6 2.8.6 4.5 3.4-1.7 4.5-5.7 3.4-8.5-1.7-3.4-5.7-5.1-9.1-3.4-2.3 1.1-3.4 2.8-4 4.5h.6c2.9-2.2 6.8-.5 8.5 2.9zm-20.4-12.5c.6 1.7.6 2.8.6 4.5 3.4-1.7 4.5-5.7 3.4-8.5-1.7-3.4-5.7-5.1-9.1-3.4-2.3 1.1-3.4 2.8-4 4.5h.6c3.4-2.2 7.3-.5 8.5 2.9z"/></svg>