<?xml version="1.0" encoding="utf-8"?>
<!-- Generator: Adobe Illustrator 19.2.1, SVG Export Plug-In . SVG Version: 6.00 Build 0)  -->
<!DOCTYPE svg PUBLIC "-//W3C//DTD SVG 1.1//EN" "http://www.w3.org/Graphics/SVG/1.1/DTD/svg11.dtd">
<svg version="1.1" id="Layer_1" xmlns="http://www.w3.org/2000/svg" xmlns:xlink="http://www.w3.org/1999/xlink" x="0px" y="0px"
	 viewBox="0 0 792 612" style="enable-background:new 0 0 792 612;" xml:space="preserve">
<path d="M394.5,350.7c-13.6,0-21.6-1.1-34.7-4l-1.1,9.7c8,9.1,11.9,15.3,17.1,26.1c6.8,14.2,9.1,23.3,10.2,39.2
	c0,0,2.3,26.1,2.3,31.8c0,6.3,15.9,6.3,15.9,0c0-11.9,2.8-31.8,2.8-31.8c1.1-15.9,3.4-25,10.2-39.8c5.1-10.8,8.5-16.5,16.5-26.1
	l-1.7-9.1C417.3,350.1,409.3,350.7,394.5,350.7z"/>
<path d="M396.8,152.3c-53.4,0-96.6,43.2-96.6,96.6s43.2,96.6,96.6,96.6s96.6-43.2,96.6-96.6C493.4,195.5,450.2,152.3,396.8,152.3z
	 M317.3,208.6c0.6,0,1.1,0,1.7,0c-2.3,1.7-4,4.5-3.4,7.4c0.6,3.4,3.4,5.7,6.8,5.7c-0.6,0.6-1.1,0.6-2.3,0.6c-4,0.6-7.4-1.7-8.5-5.1
	C311,213.1,313.3,209.1,317.3,208.6z M308.7,267.7c-3.4-4-2.8-9.7,1.1-12.5c0.6-0.6,1.1-0.6,1.7-1.1c-2.3,2.8-1.1,6.8,0.6,10.8
	c2.8,5.1,8,5.7,7.4,6.3C316.1,272.8,311.6,271.7,308.7,267.7z M313.8,241.5c0-4.5,2.3-8.5,6.3-9.1c-1.1,1.7-1.1,3.4-1.1,5.1
	c0.6,4.5,4,8,8,8h0.6c-1.1,2.3-3.4,3.4-5.7,4C317.8,249.5,313.8,246.1,313.8,241.5z M325.8,297.8c-3.4-4-2.8-9.7,1.1-12.5
	c0.6-0.6,1.1-0.6,1.7-1.1c-2.3,2.8-1.1,6.8,0.6,10.8c2.8,5.1,8,5.7,7.4,6.3C333.7,302.9,328.6,301.8,325.8,297.8z M334.9,278.5
	c-4.5,0.6-8.5-3.4-8.5-8.5c-0.6-5.1,2.8-9.1,6.8-9.7c-1.1,1.7-1.7,3.4-1.1,5.7c0.6,5.1,4,9.1,8.5,8.5h0.6
	C339.4,276.8,337.1,278.5,334.9,278.5z M346.8,299.5c-0.6-4.5,1.7-9.1,5.7-10.2c-0.6,1.7-1.1,3.4-0.6,5.7c0.6,4.5,5.1,8,9.1,7.4h0.6
	c-1.1,2.3-2.8,4-5.7,4.5C351.4,307.5,347.4,304.6,346.8,299.5z M354.2,326.8c-4-3.4-5.1-9.1-2.3-12.5c0.6-0.6,1.1-1.1,1.7-1.7
	c-1.1,3.4,0.6,7.4,3.4,10.2c4,4.5,8.7,4,8.1,4C362.3,329.1,357.6,329.1,354.2,326.8z M376.4,327.9c-4.3-3.1-5.1-9.1-2.3-12.5
	c0.6-0.6,1.1-1.1,1.7-1.7c-1.1,3.4,0.6,7.4,3.4,10.2c4,4.5,9.1,4,8.5,4C384.9,330.8,380.3,330.8,376.4,327.9z M407.6,340.4
	c-4.5,0-8.5-2.8-8.5-7.4c0-0.6,0-1.1,0-1.7c1.1,2.8,4.5,4.5,8,5.1c5.1,0.6,8.5-2.8,8.5-2.3C415,337,411.6,339.9,407.6,340.4z
	 M426.9,333c0,0-4.5-3.4-8-4.5c-7.4-3.4-15.3,0-21.6-4c-4-2.3-4.5-5.7-6.8-10.2c-1.7-2.8-2.8-2.8-7.4-4
	c-19.3-5.1-14.8-13.1-14.2-17.6c0-1.7-1.1-4-2.8-4c-4.5-0.6-14.8,1.1-19.3-11.4c-2.8-8,1.7-14.2,2.3-15.3c-0.6-1.1-1.1-7.4-4.5-6.8
	c-15.3,2.3-15.3-17.6-7.4-21c1.1-0.6,1.7-5.7-2.8-5.7c-3.4,0-9.1-1.7-10.2-10.8c-0.6-6.8,4-12.5,6.3-13.1c5.7-1.7,8.5-1.7,6.3-7.4
	c0,0-1.1-3.4-1.1-5.7c0-6.8,10.2-16.5,10.2-16.5c14.2-9.7,31.3-14.8,49.4-14.8c49.4,0,89.8,40.4,89.8,89.8
	C486.1,287,461.6,320.5,426.9,333z"/>
<path d="M385.5,268.2c-1.7,0-3.4,1.1-4.5,2.3c0,0,0,0,0.6,0c3.4,0,5.7,2.3,6.3,5.1c0,1.1,0,2.8-1.1,3.4c2.8-0.6,5.1-2.8,5.1-6.3
	C391.1,270.5,388.9,268.2,385.5,268.2z"/>
<path d="M346.2,180.2c-0.6,0,2.3,2.8,1.7,7.4c-0.6,3.4-2.3,6.3-4.5,7.4c0.6,0,1.1,0,1.7,0c4,0,6.8-3.4,6.8-7.4
	C351.4,184.1,349.1,180.7,346.2,180.2z"/>
<path d="M341.7,214.8c0-3.4-2.8-6.3-6.3-6.3c-1.1,0-2.8,0.6-3.4,1.1c2.8,0.6,5.1,3.4,5.1,6.3c0,2.3-1.1,4-2.8,5.1c0.6,0,0.6,0,1.1,0
	C338.8,221.1,341.7,218.2,341.7,214.8z"/>
<path d="M343.4,234.7c-2.3,0-4,1.1-5.1,2.8h0.6c4,0,6.8,2.8,7.4,6.3c0,1.7-0.6,2.8-1.1,4.5c3.4-0.6,6.3-3.4,5.7-7.4
	C350.2,237.6,347.4,234.7,343.4,234.7z"/>
<path d="M359.9,265.4c-2.3,0-4.5,1.7-5.7,3.4h0.6c4.5-0.6,8,2.8,8.5,7.4c0,1.7-0.6,3.4-1.1,5.1c4-0.6,6.8-4,6.8-8.5
	C367.8,268.8,363.9,265.4,359.9,265.4z"/>
<path d="M380.3,289.8c-2.3,0.6-4.5,1.7-5.7,4h0.6c4.5-0.6,8,2.3,9.1,6.8c0,1.7,0,3.4-1.1,5.1c4-1.1,6.8-4.5,6.3-8.5
	C388.9,292.7,384.9,289.3,380.3,289.8z"/>
<path d="M402.5,310.3c-2.3,1.1-3.4,2.8-4,4.5h0.6c3.4-1.7,7.4,0,9.1,3.4c0.6,1.7,0.6,2.8,0.6,4.5c3.4-1.7,4.5-5.7,3.4-8.5
	C409.9,310.3,405.9,308.6,402.5,310.3z"/>
<path d="M426.9,316.6c-1.7,1.1-2.3,2.8-2.3,4.5c0,0,0,0,0.6,0c2.3-2.3,6.3-1.7,8,0.6c0.6,1.1,1.1,2.3,1.1,3.4c2.3-2.3,2.3-5.7,0.6-8
	C433.2,315.4,429.2,314.9,426.9,316.6z"/>
<path d="M426.9,304.6c0.6,1.7,0.6,2.8,0.6,4.5c3.4-1.7,4.5-5.7,3.4-8.5c-1.7-3.4-5.7-5.1-9.1-3.4c-2.3,1.1-3.4,2.8-4,4.5h0.6
	C421.3,299.5,425.2,301.2,426.9,304.6z"/>
<path d="M406.5,292.1c0.6,1.7,0.6,2.8,0.6,4.5c3.4-1.7,4.5-5.7,3.4-8.5c-1.7-3.4-5.7-5.1-9.1-3.4c-2.3,1.1-3.4,2.8-4,4.5h0.6
	C401.4,287,405.3,288.7,406.5,292.1z"/>
</svg>
